PathFileType	4	(X/Y/Z)	C:/Users/beibeiliu/ov580/test_trc\sequence.30_training_dense_right.trc
DataRate	CameraRate	NumFrames	NumMarkers	Units	OrigDataRate	OrigDataStartFrame	OrigNumFrames
120	120	23	19	mm	120	35	69
Frame#	Time	ThumbCMC			ThumbMCP			ThumbIP			ThumbTip			IndexMCP			IndexPIP			IndexTip			MiddleMCP			MiddlePIP			MiddleTip			RingMCP			RingPIP			RingTip			PinkyMCP			PinkyPIP			PinkyTip			BackHand1			BackHand2			BackHand3	
		X0	Y0	Z0	X1	Y1	Z1	X2	Y2	Z2	X3	Y3	Z3	X4	Y4	Z4	X5	Y5	Z5	X6	Y6	Z6	X7	Y7	Z7	X8	Y8	Z8	X9	Y9	Z9	X10	Y10	Z10	X11	Y11	Z11	X12	Y12	Z12	X13	Y13	Z13	X14	Y14	Z14	X15	Y15	Z15	X16	Y16	Z16	X17	Y17	Z17	X18	Y18	Z18	
34	0.283333	135.595	61.4728	124.126	108.184	72.5316	105.681	93.8325	72.3784	88.1628	79.0989	76.1538	65.4395	127.664	36.3831	58.2628	107.037	42.7024	37.3981	87.7313	39.5261	27.5145	119.847	22.2954	54.7326	99.1319	23.7688	40.7426	71.0518	28.1016	25.6979	111.124	5.73066	64.3656	91.3863	6.58849	51.2905	67.9993	14.357	33.5991	105.698	-7.03768	79.5515	87.0945	-4.7813	65.7675	71.649	-0.0682884	47.7342	143.657	-0.264603	114.051	151.717	5.80428	141.505	159.008	32.0131	116.759	
35	0.291667	159.614	48.7273	124.392	136.095	60.3707	96.6553	123.718	64.8451	75.7464	112.708	60.3146	56.2249	154.178	18.1079	53.8534	135.746	19.4822	39.3109	118.318	23.353	21.7044	140.718	0.682722	54.9011	122.549	5.26803	36.985	99.5017	10.4988	20.4643	127.943	-12.7115	68.0422	111.888	-5.46072	45.8369	90.7992	-0.966311	27.8472	119.172	-18.3006	79.4644	106.327	-14.2052	67.255	90.225	-10.4502	45.4569	157.817	-13.2194	117.866	161.219	-6.5598	149.148	175.653	11.1767	122.292	
36	0.3	179.286	40.6782	122.231	159.601	50.3821	97.8112	151.795	51.498	66.9726	144.855	50.6816	48.3875	183.896	3.01103	60.9241	173.062	8.1834	38.1192	154.169	8.30764	21.4808	174.738	-8.58833	58.1291	159.293	-6.87501	37.6529	142.288	1.04457	11.5037	158.454	-21.4475	69.0228	144.481	-17.256	43.5121	130.954	-11.0324	21.7936	144.315	-28.8372	83.8428	132.802	-24.9417	58.3033	127.615	-22.0487	40.932	173.73	-19.1738	123.575	175.491	-12.1622	149.367	194.095	5.5794	132.244	
37	0.308333	187.128	48.6233	130.148	172.345	55.1914	97.9243	170.44	53.9704	66.0433	168.169	51.3527	46.0263	216.126	18.4098	69.6474	207.998	17.4737	44.7512	197.222	20.2971	20.1188	210.774	1.01053	64.06	199.992	0.339567	38.9668	186.288	4.39728	11.6024	198.413	-14.2596	70.7757	189.642	-11.2256	42.2067	181.514	-6.30578	20.496	182.726	-24.7605	79.7581	176.768	-20.9928	55.1652	173.058	-15.5201	32.5172	200.217	-12.1275	128.974	193.226	-8.04247	153.361	212.578	17.2634	134.737	
38	0.316667	180.447	63.8565	130.934	169.396	63.1439	96.7794	172.094	63.3393	66.0808	172.28	61.2347	47.1647	229.96	57.283	71.7569	227.051	57.4675	46.729	219.575	51.3297	21.9687	234.624	36.7172	70.4637	230.481	38.646	43.6683	221.517	37.6902	12.6238	230.885	21.6036	70.183	228.109	17.6187	47.8215	220.343	21.2474	21.1389	222.734	3.00994	82.4765	219.718	1.78443	59.4688	215.826	7.26204	35.0144	222.221	18.191	130.149	211.757	18.7552	153.892	218.528	48.0433	140.636	
39	0.325	158.597	68.4503	124.933	155.713	62.4698	88.8002	159.573	62.1847	62.9733	160.05	61.193	42.9692	207.561	89.0162	74.4663	208.76	88.6407	46.9084	208.495	81.3377	20.17	223.754	75.0451	66.2891	223.468	68.9077	38.7275	219.22	61.506	10.3527	232.25	53.1906	67.6222	230.13	51.4667	44.2776	224.774	47.987	17.3799	231.897	38.8394	79.9243	232.306	33.9767	55.3713	228.943	33.2918	30.0557	224.172	47.7435	127.577	210.789	39.8313	153.695	200.489	73.6481	137.352	
40	0.333333	141.275	56.0902	116.802	137.708	44.5737	86.306	138.107	44.4129	58.6998	143.347	45.3064	36.8826	176.105	89.2702	63.1289	179.475	83.6788	36.7322	181.583	74.3024	8.62784	199.422	78.3745	58.9941	196.954	72.6726	33.8485	196.441	61.2284	3.5889	213.494	62.9854	64.1586	211.803	58.5061	37.7209	211.828	50.616	13.3712	223.418	49.3949	72.8159	223.041	43.548	49.4049	223.12	40.0414	26.0101	205.821	63.9839	119.404	199.286	54.7379	147.328	177.313	73.3066	128.849	
41	0.341667	129.642	36.2562	114.336	123.755	19.2704	86.6226	127.426	17.4485	57.3738	128.186	14.2014	33.1441	149.758	67.662	51.5635	152.796	58.2378	25.9016	154.573	47.6364	3.84407	172.909	61.4563	44.9367	175.704	48.8305	22.5496	175.612	31.5791	-3.4357	192.533	50.5921	50.7587	190.462	42.6682	31.0694	191.058	27.5832	4.10261	206.776	41.7649	66.5241	202.754	33.2431	40.7924	207.272	27.0079	21.2323	189.813	59.9381	112.105	185.085	51.8519	135.772	155.259	64.4397	120.279	
42	0.35	122.62	20.1022	113.707	119.3	-2.57742	90.7374	117.645	-11.1098	61.2005	117.263	-17.6935	38.1611	137.715	39.1992	44.1582	137.476	27.2271	24.9399	139.138	11.7848	4.18816	159.564	35.4656	39.8931	159.633	21.3678	21.8726	157.326	0.0684806	-1.05171	174.234	29.6771	47.9138	175.442	15.568	26.1583	172.241	1.5868	7.50989	194.381	24.3547	60.897	193.236	13.9126	41.5027	192.217	4.56245	17.5886	177.637	48.1753	104.772	176.648	44.6561	129.971	144.645	51.3099	111.239	
43	0.358333	111.461	10.8041	117.252	111.787	-14.4204	96.6522	108.013	-27.5633	72.7313	107.228	-36.8857	52.8146	126.088	22.4697	48.8777	119.699	3.06924	24.4116	121.374	-13.5416	9.92955	145.232	17.8976	44.9535	140.269	-1.33671	23.2017	138.61	-23.4677	6.50055	163.451	12.8757	48.5397	160.181	-7.07577	27.1274	160.642	-24.9405	11.5532	182.269	7.36982	58.4954	176.779	-5.91235	42.1516	176.94	-18.8318	21.4244	168.105	36.9304	101.688	168.296	38.6831	127.242	139.704	41.6959	113.105	
44	0.366667	105.823	9.4104	119.994	97.6968	-16.5927	106.077	90.8941	-32.2848	84.3071	86.3816	-44.7584	64.6239	110.4	11.0328	48.6778	103.518	-6.27277	33.9704	105.09	-30.095	18.5757	129.551	4.08289	46.1321	125.663	-17.6168	28.7684	117.193	-41.507	14.9082	148.63	-4.87319	49.2079	141.895	-23.6961	32.3303	137.844	-44.0028	20.0408	163.543	-7.76566	63.6748	160.334	-25.2425	45.7097	152.839	-37.5777	28.4699	161.367	27.3844	97.2092	162.23	29.7868	130.693	130.947	37.5889	114.092	
45	0.375	100.202	18.3101	124.708	83.0724	-7.2107	110.573	69.4262	-21.765	91.6617	60.6439	-34.8682	74.3116	106.016	13.082	55.8804	89.819	-5.02481	40.1045	81.6934	-29.7125	27.0801	118.535	1.92125	50.2203	106.843	-17.1474	36.2038	93.9577	-44.8025	25.1777	135.55	-9.39524	57.0181	123.148	-31.1962	39.6282	111.424	-50.5529	28.4429	151.863	-20.5419	65.1437	140.771	-32.7508	54.3961	133.243	-51.9465	35.3428	154.998	19.3697	100.664	164.011	24.6289	130.83	129.408	39.2436	111.253	
46	0.383333	100.663	35.1224	126.196	79.6697	14.0216	115.227	58.8201	1.36052	96.0825	49.6978	-7.56052	84.6013	100.843	23.3865	57.2058	85.1696	5.49462	43.11	68.0671	-16.827	32.6938	113.885	5.29601	53.0735	93.7209	-10.996	39.408	73.7598	-32.1357	32.6316	125.56	-8.77354	59.1748	106.16	-26.7195	44.7782	87.2123	-42.8949	36.1919	138.122	-25.3933	67.5003	120.343	-38.8559	56.2142	104.948	-46.6528	44.1911	156.685	10.2808	97.3832	165.262	19.0379	125.237	140.168	40.0779	110.401	
47	0.391667	116.766	47.331	128.161	83.1385	38.1996	116.664	62.2392	32.3113	100.507	49.427	23.9822	84.59	107.846	36.0169	58.3561	86.2756	21.2764	43.5676	64.3402	12.9597	35.1026	112.117	10.737	53.1768	85.5878	3.01792	40.7647	58.4335	-6.44183	34.3956	119.244	-5.02005	61.1896	93.9624	-17.4879	47.3639	72.0607	-22.7356	40.5579	124.522	-21.0005	71.7326	104.612	-24.3388	61.2354	86.3278	-30.9854	47.8585	158.783	6.50068	100.409	167.958	14.959	128.893	151.923	41.1606	112.935	
48	0.4	133.191	58.3295	127.145	100.712	61.9071	117.53	78.1504	61.6839	97.6066	64.2114	61.3038	86.8076	117.028	42.6885	54.3228	97.9884	45.5178	44.1562	73.6475	37.7303	35.7508	114.22	20.7855	54.0225	89.8986	24.5706	42.5914	60.4011	24.896	34.6783	114.069	6.01297	60.87	91.4088	3.18824	50.5334	61.1456	3.70568	39.9426	114.628	-13.2247	75.4497	93.0444	-14.2686	63.3243	74.4043	-8.57038	50.6931	155.646	1.01406	103.605	167.432	3.00254	127.372	163.57	35.4781	111.459	
49	0.408333	151.746	54.6797	123.479	123.719	71.9113	109.083	106.944	82.3415	95.5551	91.3407	85.5213	78.1126	133.946	44.1653	56.0573	110.108	54.4216	40.2737	87.01	59.9385	30.6651	124.889	28.3175	55.2893	95.9298	35.9125	39.9512	74.5625	47.8729	31.9012	110.441	10.309	61.0187	93.0443	20.7864	48.8432	67.3649	30.4554	36.4319	108.094	-2.0576	76.4414	86.1919	3.3172	64.0322	72.5969	11.6761	48.8553	148.501	-5.48665	102.466	159.547	-4.07498	129.278	170.978	21.5064	111.569	
50	0.416667	164.43	48.5103	121.199	143.169	70.7269	108.364	130.422	81.4633	90.2453	118.19	90.2026	70.0775	148.905	37.5987	51.8315	131.996	51.4013	36.1694	112.213	61.6121	25.2631	131.065	24.7394	49.8727	115.238	38.1357	37.51	90.4528	51.5801	25.4606	114.716	9.30336	59.6685	100.124	22.4389	46.092	79.4298	38.3142	31.089	106.286	0.286887	74.1493	93.6171	11.7644	58.6674	74.8069	19.0236	44.3924	145.545	-10.4341	101.235	154.637	-14.313	130.074	171.209	7.2455	114.784	
51	0.425	174.747	36.2973	126.057	155.586	55.4961	103.342	146.066	67.154	85.2686	138.426	76.5892	63.7439	162.363	18.4683	55.683	149.031	32.8957	37.8238	134.157	48.9347	20.3049	145.071	8.16612	54.18	131.723	23.9232	35.4424	114.538	44.5684	16.6954	124.692	-2.37248	60.6414	114.537	15.6354	39.8351	97.7968	29.946	24.4914	114.239	-7.89299	72.0435	101.313	0.815575	58.2947	90.5464	13.4947	34.6552	147.955	-22.0048	105.452	151.212	-25.7596	137.008	177.969	-6.49678	118.186	
52	0.433333	184.897	21.9008	126.788	168.354	42.7026	103.486	159.883	49.1835	79.9504	156.503	59.0608	61.026	175.627	0.353799	56.4123	168.178	14.1521	35.2364	149.153	25.4071	17.1339	158.481	-10.8201	54.0088	151.158	4.57791	35.1664	133.353	20.1004	14.4956	142.21	-17.2313	59.7368	132.045	-4.99663	40.5595	119.468	10.307	19.9652	128.719	-23.8823	75.1703	120.233	-14.6417	54.7964	111.892	-5.35437	33.0296	154.7	-36.7283	113.223	160.219	-32.859	145.511	183.259	-20.124	125.137	
53	0.441667	196.469	12.0022	131.049	184.791	31.4095	103.811	179.558	36.8495	80.3968	177.286	41.453	53.9938	198.071	-18.1127	65.7804	190.131	-9.32785	43.3168	177.516	0.382907	21.8393	183.143	-27.677	61.0496	173.057	-16.5519	33.9175	161.99	-4.68626	13.2558	161.314	-35.7062	62.4546	155.141	-26.4948	41.7873	151.217	-9.86202	17.1457	145.548	-39.8537	78.2729	139.197	-33.5296	56.39	139.993	-25.6088	32.54	168.113	-46.7838	122.39	168.896	-41.0422	150.529	198.697	-29.9078	133.197	
54	0.45	206.478	9.43008	134.962	197.912	24.2517	106.423	198.687	28.777	77.2408	198.238	32.3327	57.8115	221.02	-25.0495	70.0968	218.759	-16.5614	44.9711	210.587	-11.4773	24.9303	207.881	-36.2112	65.9287	203.705	-27.6096	38.1712	199.432	-17.4153	16.1259	189.916	-42.6885	67.3682	183.614	-38.7507	44.2381	182.693	-26.9324	20.5773	171.48	-47.12	76.9058	170.036	-41.5259	54.4424	169.951	-36.4523	27.2886	186.736	-47.5345	124.431	178.682	-41.2587	154.964	212.709	-31.1118	139.087	
55	0.458333	212.566	18.3902	137.091	205.49	29.3684	104.853	205.934	36.1901	81.0351	207.729	35.1782	55.5877	241.934	-11.632	78.7909	237.684	-7.40778	53.6998	232.891	-4.51315	31.8227	229.731	-27.3062	73.105	227.993	-20.4595	46.7711	222.392	-12.8401	17.4505	211.487	-39.4151	74.7591	214.691	-30.4291	47.021	209.034	-26.3735	21.7849	196.063	-44.2271	83.1872	196.07	-42.0088	56.7942	202.919	-36.7689	34.6926	205.04	-42.9578	128.898	192.786	-34.197	157.935	226.528	-16.6904	145.726	
56	0.466667	211.576	33.5	137.832	201.341	41.9737	104.525	204.058	44.1684	78.9334	206.063	46.7722	56.4056	251.243	11.2076	82.535	250.343	17.4204	60.7486	246.339	17.6714	33.5084	246.344	-5.79776	78.0878	243.068	-2.196	52.8017	239.614	5.0725	23.9478	234.366	-19.7418	79.3108	232.927	-19.0267	51.0905	229.972	-13.811	26.8871	220.77	-31.2077	85.858	220.853	-32.2986	61.1088	223.372	-27.9744	35.7878	221.148	-27.7284	133.595	208.944	-23.2643	159.698	232.587	1.32482	148.421	
